Results
version=1
nRows=22
nColumns=24
inDegrees=yes
endheader
time	pelvis_tilt	pelvis_list	pelvis_rotation	pelvis_tx	pelvis_ty	pelvis_tz	hip_flexion_r	hip_adduction_r	hip_rotation_r	knee_angle_r	ankle_angle_r	subtalar_angle_r	mtp_angle_r	hip_flexion_l	hip_adduction_l	hip_rotation_l	knee_angle_l	ankle_angle_l	subtalar_angle_l	mtp_angle_l	lumbar_extension	lumbar_bending	lumbar_rotation
      0.77100000	     -5.06770378	     -5.42037059	      7.62987121	     -0.44477198	      0.90489983	      0.31413987	     17.57230987	     10.13926883	     -6.57780395	    -19.67300001	      7.33930000	     -3.97765015	      5.85704879	     21.71036521	     -9.20278605	     -1.28088317	    -72.23364967	     -2.60733200	     -8.50608480	      3.57605813	      0.82349082	      5.54401388	     -0.65241185
      0.77516667	     -5.12146798	     -5.25217633	      7.46734224	     -0.43950410	      0.90599649	      0.31454823	     17.00511528	     10.08637363	     -6.32025749	    -19.23739272	      7.40859098	     -3.87561469	      5.84048323	     22.35642834	     -8.90828531	     -1.48021841	    -71.83634942	     -2.11254993	     -8.51012758	      3.55537575	      0.82411524	      5.35746428	     -0.37457208
      0.77933333	     -5.16765967	     -5.08877842	      7.29412748	     -0.43422801	      0.90708896	      0.31496389	     16.42335095	     10.03626684	     -6.06814732	    -18.78625710	      7.47224126	     -3.76311175	      5.82232460	     22.97047512	     -8.62858292	     -1.69444025	    -71.36064951	     -1.65722984	     -8.49183067	      3.53643835	      0.81402105	      5.17821986	     -0.06565078
      0.78350000	     -5.20064441	     -4.91896544	      7.10688313	     -0.42895778	      0.90817755	      0.31539182	     15.82263444	      9.97884589	     -5.81231407	    -18.32544714	      7.53175310	     -3.63922059	      5.80271568	     23.54694361	     -8.35362986	     -1.93186375	    -70.81515195	     -1.22165369	     -8.45804722	      3.52023014	      0.78902286	      4.99539202	      0.25690170
      0.78766667	     -5.21584503	     -4.75948707	      6.91684843	     -0.42367723	      0.90926143	      0.31582818	     15.19256529	      9.93108558	     -5.57241720	    -17.83788750	      7.60233199	     -3.51591252	      5.77535034	     24.08709700	     -8.10278497	     -2.17911913	    -70.20300152	     -0.82238003	     -8.40253083	      3.50009794	      0.75760338	      4.81576138	      0.64969937
      0.79183333	     -5.23197394	     -4.59109328	      6.71015589	     -0.41841906	      0.91031616	      0.31627268	     14.56598463	      9.86964046	     -5.32574663	    -17.35507404	      7.64587831	     -3.36807553	      5.74870387	     24.60378409	     -7.84499321	     -2.43946600	    -69.52118897	     -0.42757078	     -8.35327388	      3.48560946	      0.71205943	      4.63948677	      0.95922838
      0.79600000	     -5.24345879	     -4.41456797	      6.48142412	     -0.41318300	      0.91134921	      0.31672302	     13.93803861	      9.79617448	     -5.07553816	    -16.87904272	      7.67128755	     -3.20254384	      5.73070364	     25.08815818	     -7.58559919	     -2.72156607	    -68.76914506	     -0.04161339	     -8.30034405	      3.48126067	      0.65409308	      4.46422138	      1.20735882
      0.80016667	     -5.22632604	     -4.25870120	      6.26520260	     -0.40793552	      0.91237190	      0.31718461	     13.26491366	      9.74385149	     -4.84567952	    -16.36417081	      7.72345310	     -3.03989036	      5.70752581	     25.53467711	     -7.36567413	     -3.00615744	    -67.96395091	      0.30736969	     -8.22162620	      3.47717197	      0.57513427	      4.29371659	      1.56975399
      0.80433333	     -5.21178578	     -4.10005111	      6.02705385	     -0.40270909	      0.91335514	      0.31764900	     12.59791774	      9.68338121	     -4.60919855	    -15.85358099	      7.74788342	     -2.86334263	      5.68392176	     25.95919729	     -7.14796527	     -3.30634226	    -67.09390561	      0.64838631	     -8.14322767	      3.47593626	      0.49159042	      4.13352843	      1.88918099
      0.80850000	     -5.18431576	     -3.94217783	      5.77981628	     -0.39749249	      0.91431006	      0.31812097	     11.91605611	      9.62106472	     -4.37819493	    -15.33893091	      7.77225555	     -2.67739411	      5.66185667	     26.34964189	     -6.93848302	     -3.61703070	    -66.16276785	      0.96925012	     -8.05972707	      3.47762000	      0.39366860	      3.97742219	      2.20250660
      0.81266667	     -5.14635157	     -3.78974514	      5.52716281	     -0.39228152	      0.91523094	      0.31858721	     11.22034149	      9.55877160	     -4.15676564	    -14.81533447	      7.79352751	     -2.48508896	      5.64364452	     26.71100864	     -6.74307794	     -3.93626745	    -65.17478873	      1.26866254	     -7.97360554	      3.48116785	      0.28387925	      3.82514372	      2.49474653
      0.81683333	     -5.09940575	     -3.64554262	      5.26682612	     -0.38708912	      0.91611186	      0.31905726	     10.51382227	      9.50078164	     -3.94143383	    -14.28231548	      7.80720907	     -2.28165424	      5.62621841	     27.04699444	     -6.56277361	     -4.25947252	    -64.13309685	      1.54914472	     -7.88500407	      3.48601874	      0.16153050	      3.68594542	      2.80242377
      0.82100000	     -5.04657890	     -3.50906833	      5.00007265	     -0.38190686	      0.91694103	      0.31952580	      9.80136732	      9.44536534	     -3.73340588	    -13.74632737	      7.81829669	     -2.06858318	      5.60975692	     27.36013929	     -6.39536070	     -4.58610751	    -63.03879663	      1.81062551	     -7.79180810	      3.49134695	      0.03515968	      3.55677614	      3.11012650
      0.82516667	     -4.98633269	     -3.37997470	      4.72776480	     -0.37673577	      0.91772128	      0.31999279	      9.07952290	      9.39192264	     -3.53406079	    -13.20399322	      7.82588910	     -1.84595783	      5.59472841	     27.64926496	     -6.24167674	     -4.91687539	    -61.89281399	      2.05204168	     -7.69789960	      3.49716288	     -0.10254448	      3.43552967	      3.41114563
      0.82933333	     -4.93240288	     -3.24910465	      4.43866183	     -0.37158457	      0.91843933	      0.32045960	      8.37383449	      9.32791115	     -3.33982857	    -12.67773122	      7.80035516	     -1.60724906	      5.58418962	     27.92307188	     -6.09057718	     -5.26090647	    -60.68884858	      2.27228703	     -7.60718522	      3.50219298	     -0.23668640	      3.32022869	      3.65680389
      0.83350000	     -4.85346629	     -3.15148613	      4.17061301	     -0.36643777	      0.91910292	      0.32090596	      7.62350905	      9.29646818	     -3.15457221	    -12.10598112	      7.82665743	     -1.36533766	      5.56991705	     28.17185911	     -5.97115193	     -5.56793019	    -59.45876051	      2.48024898	     -7.50497697	      3.50926326	     -0.40019673	      3.23756411	      4.03441157
      0.83766667	     -4.78903011	     -3.03644511	      3.87725379	     -0.36130145	      0.91969829	      0.32136859	      6.90780372	      9.23620421	     -2.98993719	    -11.57628160	      7.81419877	     -1.11552241	      5.56185629	     28.40477856	     -5.84526024	     -5.91319808	    -58.15981082	      2.65387555	     -7.40276267	      3.51423512	     -0.53425700	      3.13390561	      4.26596756
      0.84183333	     -4.71790024	     -2.94349110	      3.59209379	     -0.35617164	      0.92022258	      0.32180799	      6.17669423	      9.19288737	     -2.83173247	    -11.02311231	      7.81159974	     -0.84784625	      5.55606929	     28.62363413	     -5.73788219	     -6.23591639	    -56.82650474	      2.81650637	     -7.29990403	      3.51938481	     -0.68443456	      3.05241013	      4.53261170
      0.84600000	     -4.62978414	     -2.87145110	      3.32366520	     -0.35104139	      0.92068349	      0.32222746	      5.41818563	      9.16706298	     -2.69023686	    -10.44896319	      7.85768280	     -0.57419596	      5.54996380	     28.81936996	     -5.64820102	     -6.53093406	    -55.46270108	      2.96579119	     -7.19161770	      3.52740332	     -0.85320204	      2.99601622	      4.89265879
      0.85016667	     -4.56250152	     -2.79771409	      3.03882575	     -0.34592042	      0.92105026	      0.32264994	      4.69588809	      9.12916320	     -2.55757472	     -9.90048219	      7.87010772	     -0.28366201	      5.54671688	     29.01521879	     -5.56148452	     -6.84114577	    -54.04661776	      3.09178845	     -7.07512718	      3.53543058	     -0.99357615	      2.93648041	      5.17566372
      0.85433333	     -4.50654193	     -2.72632862	      2.74417609	     -0.34081797	      0.92133003	      0.32307399	      3.99893908	      9.08489632	     -2.43362093	     -9.37580908	      7.86019007	      0.01977717	      5.54642443	     29.20439715	     -5.48018553	     -7.15525836	    -52.58184124	      3.19703350	     -6.95125180	      3.54199732	     -1.12413520	      2.88057112	      5.40620360
      0.85850000	     -4.43118339	     -2.68209133	      2.47551797	     -0.33569818	      0.92153908	      0.32345658	      3.26562949	      9.06414145	     -2.33139411	     -8.81836932	      7.92478165	      0.35111103	      5.55103038	     29.37108471	     -5.41660046	     -7.43138374	    -51.09812752	      3.30189065	     -6.82633025	      3.55211333	     -1.27361731	      2.85433381	      5.72999240
